REM DIRINDEX 1\2,1\3,1\4
REM DIRNAME cjc151,folder01,folder02,folder03
TITLE ""
FILE "065 065_TOEFL_3900.mp3" MP3
  TRACK 01 AUDIO
    TITLE "2:cjc151_2808"
    INDEX 01 00:00:00
  TRACK 02 AUDIO
    TITLE "0:"
    INDEX 01 00:01:11
  TRACK 03 AUDIO
    TITLE "3:cjc151_2809"
    INDEX 01 00:02:61
  TRACK 04 AUDIO
    TITLE "0:"
    INDEX 01 00:06:14
  TRACK 05 AUDIO
    TITLE "2:cjc151_2810"
    INDEX 01 00:07:68
  TRACK 06 AUDIO
    TITLE "0:"
    INDEX 01 00:09:02
  TRACK 07 AUDIO
    TITLE "3:cjc151_2811"
    INDEX 01 00:10:63
  TRACK 08 AUDIO
    TITLE "0:"
    INDEX 01 00:15:21
  TRACK 09 AUDIO
    TITLE "2:cjc151_2812"
    INDEX 01 00:17:00
  TRACK 10 AUDIO
    TITLE "0:"
    INDEX 01 00:17:72
  TRACK 11 AUDIO
    TITLE "3:cjc151_2813"
    INDEX 01 00:19:46
  TRACK 12 AUDIO
    TITLE "0:"
    INDEX 01 00:23:71
  TRACK 13 AUDIO
    TITLE "2:cjc151_2814"
    INDEX 01 00:25:50
  TRACK 14 AUDIO
    TITLE "0:"
    INDEX 01 00:26:50
  TRACK 15 AUDIO
    TITLE "3:cjc151_2815"
    INDEX 01 00:28:21
  TRACK 16 AUDIO
    TITLE "0:"
    INDEX 01 00:32:31
  TRACK 17 AUDIO
    TITLE "2:cjc151_2816"
    INDEX 01 00:34:10
  TRACK 18 AUDIO
    TITLE "0:"
    INDEX 01 00:35:14
  TRACK 19 AUDIO
    TITLE "3:cjc151_2817"
    INDEX 01 00:36:68
  TRACK 20 AUDIO
    TITLE "0:"
    INDEX 01 00:40:73
  TRACK 21 AUDIO
    TITLE "2:cjc151_2818"
    INDEX 01 00:42:51
  TRACK 22 AUDIO
    TITLE "0:"
    INDEX 01 00:43:46
  TRACK 23 AUDIO
    TITLE "3:cjc151_2819"
    INDEX 01 00:45:26
  TRACK 24 AUDIO
    TITLE "0:"
    INDEX 01 00:49:14
  TRACK 25 AUDIO
    TITLE "2:cjc151_2820"
    INDEX 01 00:50:68
  TRACK 26 AUDIO
    TITLE "0:"
    INDEX 01 00:52:16
  TRACK 27 AUDIO
    TITLE "3:cjc151_2821"
    INDEX 01 00:53:64
  TRACK 28 AUDIO
    TITLE "0:"
    INDEX 01 00:57:54
  TRACK 29 AUDIO
    TITLE "2:cjc151_2822"
    INDEX 01 00:59:32
  TRACK 30 AUDIO
    TITLE "0:"
    INDEX 01 01:00:31
  TRACK 31 AUDIO
    TITLE "3:cjc151_2823"
    INDEX 01 01:02:10
  TRACK 32 AUDIO
    TITLE "0:"
    INDEX 01 01:04:66
  TRACK 33 AUDIO
    TITLE "2:cjc151_2824"
    INDEX 01 01:06:45
  TRACK 34 AUDIO
    TITLE "0:"
    INDEX 01 01:07:57
  TRACK 35 AUDIO
    TITLE "3:cjc151_2825"
    INDEX 01 01:09:36
  TRACK 36 AUDIO
    TITLE "0:"
    INDEX 01 01:13:10
  TRACK 37 AUDIO
    TITLE "2:cjc151_2826"
    INDEX 01 01:14:63
  TRACK 38 AUDIO
    TITLE "0:"
    INDEX 01 01:16:24
  TRACK 39 AUDIO
    TITLE "3:cjc151_2827"
    INDEX 01 01:18:06
  TRACK 40 AUDIO
    TITLE "0:"
    INDEX 01 01:22:15
  TRACK 41 AUDIO
    TITLE "2:cjc151_2828"
    INDEX 01 01:23:67
  TRACK 42 AUDIO
    TITLE "0:"
    INDEX 01 01:25:15
  TRACK 43 AUDIO
    TITLE "3:cjc151_2829"
    INDEX 01 01:26:72
  TRACK 44 AUDIO
    TITLE "0:"
    INDEX 01 01:30:54
  TRACK 45 AUDIO
    TITLE "2:cjc151_2830"
    INDEX 01 01:32:33
  TRACK 46 AUDIO
    TITLE "0:"
    INDEX 01 01:33:50
  TRACK 47 AUDIO
    TITLE "3:cjc151_2831"
    INDEX 01 01:35:31
  TRACK 48 AUDIO
    TITLE "0:"
    INDEX 01 01:38:45
  TRACK 49 AUDIO
    TITLE "2:cjc151_2832"
    INDEX 01 01:40:23
  TRACK 50 AUDIO
    TITLE "0:"
    INDEX 01 01:41:20
  TRACK 51 AUDIO
    TITLE "3:cjc151_2833"
    INDEX 01 01:43:00
  TRACK 52 AUDIO
    TITLE "0:"
    INDEX 01 01:46:61
  TRACK 53 AUDIO
    TITLE "2:cjc151_2834"
    INDEX 01 01:48:40
  TRACK 54 AUDIO
    TITLE "0:"
    INDEX 01 01:49:30
  TRACK 55 AUDIO
    TITLE "3:cjc151_2835"
    INDEX 01 01:51:30
  TRACK 56 AUDIO
    TITLE "0:"
    INDEX 01 01:54:56
  TRACK 57 AUDIO
    TITLE "2:cjc151_2836"
    INDEX 01 01:56:57
  TRACK 58 AUDIO
    TITLE "0:"
    INDEX 01 01:57:57
  TRACK 59 AUDIO
    TITLE "3:cjc151_2837"
    INDEX 01 01:59:32
  TRACK 60 AUDIO
    TITLE "0:"
    INDEX 01 02:03:06
  TRACK 61 AUDIO
    TITLE "2:cjc151_2838"
    INDEX 01 02:04:60
  TRACK 62 AUDIO
    TITLE "0:"
    INDEX 01 02:05:60
  TRACK 63 AUDIO
    TITLE "3:cjc151_2839"
    INDEX 01 02:07:39
  TRACK 64 AUDIO
    TITLE "0:"
    INDEX 01 02:10:49
  TRACK 65 AUDIO
    TITLE "2:cjc151_2840"
    INDEX 01 02:12:27
  TRACK 66 AUDIO
    TITLE "0:"
    INDEX 01 02:13:22
  TRACK 67 AUDIO
    TITLE "3:cjc151_2841"
    INDEX 01 02:15:02
  TRACK 68 AUDIO
    TITLE "0:"
    INDEX 01 02:18:37
  TRACK 69 AUDIO
    TITLE "2:cjc151_2842"
    INDEX 01 02:20:14
  TRACK 70 AUDIO
    TITLE "0:"
    INDEX 01 02:21:32
  TRACK 71 AUDIO
    TITLE "3:cjc151_2843"
    INDEX 01 02:23:07
  TRACK 72 AUDIO
    TITLE "0:"
    INDEX 01 02:26:29
  TRACK 73 AUDIO
    TITLE "2:cjc151_2844"
    INDEX 01 02:28:08
  TRACK 74 AUDIO
    TITLE "0:"
    INDEX 01 02:29:23
  TRACK 75 AUDIO
    TITLE "3:cjc151_2845"
    INDEX 01 02:31:12
  TRACK 76 AUDIO
    TITLE "0:"
    INDEX 01 02:35:53
  TRACK 77 AUDIO
    TITLE "2:cjc151_2846"
    INDEX 01 02:37:33
  TRACK 78 AUDIO
    TITLE "0:"
    INDEX 01 02:38:46
  TRACK 79 AUDIO
    TITLE "3:cjc151_2847"
    INDEX 01 02:40:23
  TRACK 80 AUDIO
    TITLE "0:"
    INDEX 01 02:44:40
  TRACK 81 AUDIO
    TITLE "2:cjc151_2848"
    INDEX 01 02:46:20
  TRACK 82 AUDIO
    TITLE "0:"
    INDEX 01 02:47:41
  TRACK 83 AUDIO
    TITLE "3:cjc151_2849"
    INDEX 01 02:49:20
  TRACK 84 AUDIO
    TITLE "0:"
    INDEX 01 02:52:52
  TRACK 85 AUDIO
    TITLE "2:cjc151_2850"
    INDEX 01 02:54:29
  TRACK 86 AUDIO
    TITLE "0:"
    INDEX 01 02:55:27
  TRACK 87 AUDIO
    TITLE "3:cjc151_2851"
    INDEX 01 02:57:20
  TRACK 88 AUDIO
    TITLE "0:"
    INDEX 01 03:01:11
